<svg id="Layer_1" height="512" viewBox="0 0 512 512" width="512" xmlns="http://www.w3.org/2000/svg" data-name="Layer 1"><path d="m174 86h-133v53.256l32.234-24.079a6.243 6.243 0 0 1 7.131-.163l51.405 35.041 42.23-19.687zm-45.626 45.765a20.214 20.214 0 1 1 20.213-20.213 20.237 20.237 0 0 1 -20.213 20.213z"/><path d="m128.374 103.338a8.214 8.214 0 1 0 8.213 8.214 8.224 8.224 0 0 0 -8.213-8.214z"/><path d="m108.03 20.859-29.141 29.141h58.283z"/><path d="m186 174.78 16 14.016v-120.048l-16 13.9z"/><path d="m178.155 74 14.341-12h-169.253l14.446 12z"/><path d="m127.947 161.89-50.885-34.542-36.062 26.912v17.74h133v-28.4l-40.294 18.777a5.171 5.171 0 0 1 -2.331.557 6.163 6.163 0 0 1 -3.428-1.044z"/><path d="m178.14 184h-140.437l-13.868 12h168.072z"/><path d="m29 82.661-15-13.617v119.454l15-13.73z"/><path d="m394.619 99h-49.238l-17.326 58h83.89z"/><path d="m364 163h12v76h-12z"/><path d="m148.1 327.994a10.152 10.152 0 1 0 -7.18-2.973 10.088 10.088 0 0 0 7.18 2.973z"/><path d="m258.1 327.994a10.152 10.152 0 1 0 -7.18-2.973 10.088 10.088 0 0 0 7.18 2.973z"/><path d="m61 272.219v59.3a39.856 39.856 0 0 1 30 38.526v18.955h340v-18.958a39.856 39.856 0 0 1 30-38.526v-59.3a27.333 27.333 0 0 0 -27.672-27.216h-344.653a27.335 27.335 0 0 0 -27.675 27.219zm279.307 17.828a6 6 0 0 1 8.485 0l8.48 8.479a22.092 22.092 0 0 1 21.661 0l8.478-8.479a6 6 0 0 1 8.486 8.485l-8.487 8.488a22.211 22.211 0 0 1 0 21.644l8.487 8.487a6 6 0 1 1 -8.486 8.485l-8.478-8.479a22.094 22.094 0 0 1 -21.662 0l-8.479 8.479a6 6 0 1 1 -8.484-8.485l8.479-8.479a22.085 22.085 0 0 1 0-21.661l-8.479-8.479a6 6 0 0 1 -.001-8.485zm-110 0a6 6 0 0 1 8.485 0l8.48 8.479a22.092 22.092 0 0 1 21.661 0l8.478-8.479a6 6 0 0 1 8.486 8.485l-8.487 8.488a22.211 22.211 0 0 1 0 21.644l8.487 8.487a6 6 0 1 1 -8.486 8.485l-8.478-8.479a22.094 22.094 0 0 1 -21.662 0l-8.479 8.479a6 6 0 0 1 -8.484-8.485l8.479-8.479a22.085 22.085 0 0 1 0-21.661l-8.479-8.479a6 6 0 0 1 -.001-8.485zm-110 0a6 6 0 0 1 8.485 0l8.48 8.479a22.092 22.092 0 0 1 21.661 0l8.478-8.479a6 6 0 0 1 8.486 8.485l-8.487 8.488a22.211 22.211 0 0 1 0 21.644l8.487 8.487a6 6 0 1 1 -8.486 8.485l-8.478-8.479a22.094 22.094 0 0 1 -21.662 0l-8.479 8.479a6 6 0 0 1 -8.484-8.485l8.479-8.479a22.085 22.085 0 0 1 0-21.661l-8.479-8.479a6 6 0 0 1 -.001-8.485z"/><path d="m368.1 327.994a10.152 10.152 0 1 0 -7.18-2.973 10.088 10.088 0 0 0 7.18 2.973z"/><path d="m419 468h56v24h-56z"/><path d="m470.5 342.389a27.554 27.554 0 0 0 -27.5 27.653v24.325c0 3.314-2.993 6.633-6.307 6.633h-351.383c-3.31 0-6.31-3.319-6.31-6.633v-24.325a27.5 27.5 0 1 0 -55 0v85.958h474v-85.958a27.554 27.554 0 0 0 -27.5-27.653z"/><path d="m47 468h56v24h-56z"/></svg>