<svg height="503pt" viewBox="0 0 503.74774 503" width="503pt" xmlns="http://www.w3.org/2000/svg"><path d="m321.085938 252.039062v216.949219c0 19.179688-69.964844 34.710938-156.203126 34.710938-86.242187 0-156.203124-15.53125-156.203124-34.710938v-221.570312zm0 0" fill="#2980ba"/><path d="m247.410156 264.710938c-27.394531 3.195312-54.949218 4.761718-82.527344 4.683593-71.679687 0-132.773437-9.632812-155.425781-23.167969-6.160156-3.558593-9.457031-7.464843-9.457031-11.542968v-34.710938c0 6.335938 21.289062-8.648437 35.433594-3.617187 40.285156 17.023437 83.546875 25.871093 127.277344 26.035156 18.832031 0 67.6875-16.140625 84.609374-17.355469l.78125 48.304688c-3.101562 3.058594-3.398437 7.960937-.691406 11.371094zm0 0" fill="#a5a5a4"/><path d="m493.453125 351.628906-12.035156 12.03125c-6.675781 6.796875-15.871094 10.519532-25.394531 10.289063-9.527344-.226563-18.53125-4.394531-24.871094-11.503907-24.253906-28.125-29.285156-75.480468-72.273438-84.867187l.535156-50.121094 47.949219 1.632813c9.390625 42.992187 56.742188 48.019531 84.871094 72.273437 7.109375 6.34375 11.273437 15.347657 11.503906 24.871094s-3.492187 18.714844-10.285156 25.394531zm0 0" fill="#e64c3c"/><path d="m221.289062 201.597656c-2.34375-.085937-50.269531 19.527344-52.609374 19.527344-60.921876 0-118-14.210938-146.464844-3.796875-14.144532-5.035156-22.214844-11.019531-22.214844-17.355469 0-16.664062 55.800781-30.546875 130.167969-33.933594-.085938 2.777344 52.808593-.34375 55.324219 1.390626zm0 0" fill="#7f8284"/><path d="m202.050781 393.285156c5.207031 12.011719 4.492188 25.769532-1.929687 37.175782-6.417969 11.410156-17.808594 19.160156-30.777344 20.945312-2.96875.300781-5.957031.300781-8.925781 0-12.96875-1.785156-24.355469-9.535156-30.777344-20.945312-6.421875-11.40625-7.136719-25.164063-1.929687-37.175782l6.625-15.9375 22.535156-55.882812c1.351562-3.234375 4.507812-5.339844 8.011718-5.339844 3.5 0 6.660157 2.105469 8.007813 5.339844l22.539063 55.882812zm0 0" fill="#285680"/><path d="m43.390625 312.785156c-4.792969 0-8.679687-3.886718-8.679687-8.679687v-8.675781c0-4.792969 3.886718-8.679688 8.679687-8.679688s8.675781 3.886719 8.675781 8.679688v8.675781c0 4.792969-3.882812 8.679687-8.675781 8.679687zm0 0" fill="#9fc9d3"/><path d="m43.390625 460.3125c-4.792969 0-8.679687-3.886719-8.679687-8.679688v-112.8125c0-4.792968 3.886718-8.679687 8.679687-8.679687s8.675781 3.886719 8.675781 8.679687v112.8125c0 4.792969-3.882812 8.679688-8.675781 8.679688zm0 0" fill="#9fc9d3"/><path d="m218.773438 232.773438c-16.925782 1.214843-35.0625 1.910156-53.890626 1.910156-60.921874 0-114.203124-6.941406-142.667968-17.355469 28.464844-10.414063 81.746094-17.355469 142.667968-17.355469 2.339844 0 4.769532 0 7.113282.085938zm0 0" fill="#603e26"/><path d="m383.132812 118.3125-49.753906 91.058594-85.277344 43.96875-29.328124-20.566406-46.777344-32.714844-38.09375-26.726563c-2.109375-1.453125-3.464844-3.765625-3.699219-6.3125s.675781-5.070312 2.484375-6.878906l24.90625-24.90625c2.730469-2.734375 6.9375-3.335937 10.324219-1.476563l49.550781 27.511719-27.507812-49.464843c-1.886719-3.398438-1.324219-7.628907 1.386718-10.414063l38.359375-38.269531 12.234375-12.324219 47.988282-47.902344c1.8125-1.808593 4.332031-2.71875 6.882812-2.484375 2.546875.234375 4.859375 1.589844 6.308594 3.699219zm0 0" fill="#cbb292"/><path d="m302.773438 137.230469c-1.539063 1.335937-3.511719 2.078125-5.554688 2.082031-2.574219-.023438-5.011719-1.164062-6.679688-3.125l-60.832031-73.066406 12.234375-12.324219c.222656.179687.425782.382813.609375.609375l61.351563 73.675781c3.027344 3.671875 2.523437 9.097657-1.128906 12.148438zm0 0" fill="#a59078"/><path d="m450.648438 185.828125-135.03125 135.027344c-1.621094 1.625-3.820313 2.539062-6.117188 2.539062s-4.496094-.914062-6.117188-2.539062l-55.28125-55.277344c-.277343-.25-.511718-.542969-.691406-.867187-2.707031-3.410157-2.410156-8.3125.691406-11.371094l135.03125-135.027344c1.621094-1.625 3.820313-2.539062 6.117188-2.539062s4.496094.914062 6.117188 2.539062l55.28125 55.277344c1.625 1.621094 2.535156 3.824218 2.535156 6.117187 0 2.296875-.910156 4.5-2.535156 6.121094zm0 0" fill="#7f8284"/><g fill="#a5a5a4"><path d="m291.078125 268.140625c-3.511719 0-6.675781-2.113281-8.019531-5.355469-1.339844-3.242187-.597656-6.976562 1.882812-9.457031l6.136719-6.136719c3.398437-3.316406 8.832031-3.28125 12.191406.078125s3.394531 8.792969.078125 12.195313l-6.136718 6.132812c-1.625 1.632813-3.832032 2.546875-6.132813 2.542969zm0 0"/><path d="m321.757812 237.460938c-3.507812 0-6.671874-2.117188-8.015624-5.359376-1.34375-3.242187-.601563-6.972656 1.878906-9.453124l67.496094-67.5c2.179687-2.25 5.402343-3.148438 8.433593-2.351563 3.027344.792969 5.394531 3.160156 6.191407 6.1875.792968 3.03125-.105469 6.253906-2.351563 8.433594l-67.496094 67.5c-1.625 1.628906-3.835937 2.546875-6.136719 2.542969zm0 0"/></g></svg>